<?xml version="1.0" encoding="UTF-8" standalone="no"?>
<svg
   xmlns:dc="http://purl.org/dc/elements/1.1/"
   xmlns:cc="http://creativecommons.org/ns#"
   xmlns:rdf="http://www.w3.org/1999/02/22-rdf-syntax-ns#"
   xmlns:svg="http://www.w3.org/2000/svg"
   xmlns="http://www.w3.org/2000/svg"
   xmlns:sodipodi="http://sodipodi.sourceforge.net/DTD/sodipodi-0.dtd"
   xmlns:inkscape="http://www.inkscape.org/namespaces/inkscape"
   width="77.457329mm"
   height="76.984413mm"
   viewBox="0 0 77.457329 76.984413"
   version="1.1"
   id="svg1001"
   inkscape:version="1.0.2 (e86c870879, 2021-01-15, custom)"
   sodipodi:docname="Joseph Watson ornamental corner 17.svg">
  <defs
     id="defs995" />
  <sodipodi:namedview
     id="base"
     pagecolor="#ffffff"
     bordercolor="#666666"
     borderopacity="1.0"
     inkscape:pageopacity="0.0"
     inkscape:pageshadow="2"
     inkscape:zoom="1.979899"
     inkscape:cx="43.060048"
     inkscape:cy="194.22371"
     inkscape:document-units="mm"
     inkscape:current-layer="layer1"
     inkscape:document-rotation="0"
     showgrid="false"
     inkscape:window-width="1920"
     inkscape:window-height="1057"
     inkscape:window-x="-8"
     inkscape:window-y="-8"
     inkscape:window-maximized="1" />
  <metadata
     id="metadata998">
    <rdf:RDF>
      <cc:Work
         rdf:about="">
        <dc:format>image/svg+xml</dc:format>
        <dc:type
           rdf:resource="http://purl.org/dc/dcmitype/StillImage" />
        <dc:title></dc:title>
      </cc:Work>
    </rdf:RDF>
  </metadata>
  <g
     inkscape:label="Layer 1"
     inkscape:groupmode="layer"
     id="layer1"
     transform="translate(-115.47631,-112.52315)">
    <path
       style="fill:#000000;stroke-width:0.264583"
       d="m 129.61402,188.63846 c 0.71821,-0.76824 0.93472,-0.85072 2.03146,-0.77379 0.96163,0.0675 1.33091,-0.0281 1.7046,-0.44101 0.38259,-0.42275 0.41864,-0.63623 0.18206,-1.07829 -0.16224,-0.30315 -0.40952,-0.55118 -0.5495,-0.55118 -0.48217,0 -2.3727,-1.91454 -2.3727,-2.40283 0,-0.26904 -0.36018,-0.89939 -0.8004,-1.40078 l -0.80041,-0.91161 0.7735,-1.94716 c 0.87035,-2.191 1.01797,-2.9846 0.72052,-3.87376 -0.13852,-0.41408 -0.0768,-0.759 0.18947,-1.05834 0.5615,-0.6313 1.23988,-3.10346 1.24223,-4.52698 0.003,-1.83066 0.49747,-4.5406 1.01062,-5.53902 0.25179,-0.48989 0.93062,-1.15531 1.50852,-1.47872 0.57791,-0.32341 1.09268,-0.80364 1.14392,-1.06719 0.0857,-0.4405 -0.0815,-0.4672 -2.07102,-0.33084 l -2.1642,0.14834 0.10219,-7.84774 c 0.10871,-8.34814 0.16711,-8.7641 1.50122,-10.6919 0.88742,-1.28235 2.90479,-2.31522 4.522,-2.31522 2.10243,0 4.23434,1.85609 4.23434,3.68651 0,0.8277 -0.63687,2.19188 -1.29865,2.78173 -1.10541,0.98526 -3.53985,0.35719 -3.09625,-0.79881 0.16049,-0.41823 0.22678,-0.40874 0.78084,0.11177 0.76037,0.71433 0.80129,0.71168 1.61766,-0.10468 0.49722,-0.49723 0.67348,-0.95062 0.67348,-1.73243 0,-2.16429 -2.46059,-3.14619 -4.20529,-1.67812 -3.33474,2.806 1.10114,7.96258 4.57236,5.31525 0.54316,-0.41424 1.24832,-1.29107 1.56702,-1.9485 l 0.57945,-1.19534 1.57592,0.16421 c 1.71324,0.17851 2.41078,0.55617 1.57718,0.85392 -0.84189,0.3007 -1.4333,0.94272 -1.4333,1.55595 0,1.28659 2.0659,2.00966 2.64583,0.92604 0.37935,-0.70883 0.91074,-0.66712 1.49929,0.11768 0.75311,1.00425 1.7757,1.12931 2.58844,0.31657 0.86148,-0.86149 0.84812,-1.09536 -0.11781,-2.06128 l -0.79258,-0.79259 0.66029,-0.86568 c 0.82185,-1.0775 0.82316,-1.33837 0.0108,-2.15068 -0.82104,-0.82105 -1.25889,-0.81725 -2.16097,0.0188 -0.39655,0.36751 -0.84917,0.626 -1.00582,0.57441 -0.15665,-0.0516 -0.32018,-0.7577 -0.36342,-1.56915 l -0.0786,-1.47535 1.46072,-0.66874 c 2.99956,-1.37325 3.46956,-4.62783 0.9375,-6.49192 -0.72708,-0.53527 -1.0537,-0.60533 -2.2086,-0.4737 -1.13766,0.12966 -1.49344,0.31199 -2.21523,1.13527 -1.0493,1.19685 -1.10295,2.15069 -0.18249,3.2446 0.81603,0.96978 2.13356,1.29052 3.20269,0.77964 0.9214,-0.44026 1.19823,-1.54409 0.38727,-1.54409 -0.75308,0 -0.95528,-0.47889 -0.44178,-1.0463 0.52048,-0.57512 1.36455,-0.43155 1.7553,0.29856 0.33698,0.62966 -0.068,1.99801 -0.83496,2.82126 -1.11157,1.19313 -4.30046,0.46053 -5.53361,-1.27126 -1.27258,-1.78718 -1.03097,-3.8978 0.66173,-5.78048 1.97164,-2.19295 2.17642,-2.2333 11.80769,-2.32674 l 8.37442,-0.0812 -0.13764,1.51795 c -0.10566,1.16532 -0.0435,1.59612 0.26785,1.85447 0.33691,0.27961 0.49882,0.23633 0.95748,-0.25598 0.3036,-0.32588 0.552,-0.67646 0.552,-0.77906 0,-0.28681 3.16583,-1.48853 4.77892,-1.81404 0.79133,-0.15969 2.24193,-0.40394 3.22355,-0.54279 0.98162,-0.13885 2.15117,-0.44192 2.599,-0.67351 0.55611,-0.28757 1.08071,-0.35999 1.65482,-0.22843 1.21776,0.27907 1.98531,0.18071 4.28458,-0.54904 l 2.05076,-0.65088 1.22138,1.20787 c 0.67175,0.66432 1.63809,1.4348 2.14741,1.71218 0.50932,0.27738 1.22959,0.74736 1.60059,1.04441 0.43336,0.34697 0.84738,0.47377 1.15788,0.35462 0.41639,-0.15979 0.46177,-0.39165 0.32768,-1.67448 -0.13421,-1.28412 -0.0854,-1.5329 0.35516,-1.808 0.7767,-0.48506 1.35738,-1.79784 1.16675,-2.63773 -0.0911,-0.40144 -0.47253,-0.98979 -0.84758,-1.30744 -0.64864,-0.54937 -0.66529,-0.6279 -0.34125,-1.60973 0.40246,-1.21946 0.31717,-1.88573 -0.29035,-2.26829 -0.35558,-0.22391 -0.66882,-0.0725 -1.5875,0.76724 -0.62948,0.5754 -1.62076,1.2607 -2.20284,1.52287 -0.58208,0.26217 -1.35599,0.88314 -1.71979,1.37993 -0.3638,0.49679 -0.82022,0.90653 -1.01426,0.91054 -0.19404,0.004 -1.25723,-0.35487 -2.36265,-0.7975 -1.57153,-0.62927 -2.36013,-0.79341 -3.61595,-0.75261 -0.97824,0.0318 -2.01983,-0.11452 -2.66443,-0.37423 -0.58209,-0.23452 -1.77271,-0.43364 -2.64584,-0.4425 -0.87312,-0.009 -2.64164,-0.29963 -3.93003,-0.64616 -1.89849,-0.51063 -2.53442,-0.81743 -3.35477,-1.61848 -1.21733,-1.18869 -1.77578,-1.09293 -1.89262,0.32451 l -0.083,1.00696 -8.26823,0.0699 c -4.54752,0.0384 -8.26617,-0.0211 -8.26365,-0.13229 0.003,-0.11122 0.27726,-0.46055 0.61055,-0.7763 2.23995,-2.12206 0.69029,-6.25344 -2.62383,-6.99511 -1.32783,-0.29716 -1.47881,-0.27387 -2.93669,0.45297 -1.31535,0.65577 -1.64178,0.97331 -2.2645,2.20273 -0.64747,1.2783 -0.7276,1.72392 -0.7276,4.04602 0,2.52849 -0.0267,2.64572 -0.8599,3.77556 -0.47294,0.64132 -1.03019,1.23613 -1.23832,1.32179 -0.23281,0.0958 -0.89461,-0.35198 -1.7198,-1.16368 -1.3449,-1.32293 -3.24249,-2.38805 -4.27382,-2.39892 -0.87519,-0.009 -0.927,-0.27555 -0.2311,-1.18792 0.35751,-0.46872 0.65002,-1.00332 0.65002,-1.188 0,-0.23554 0.25671,-0.28762 0.8599,-0.17444 2.73721,0.51361 2.65024,0.52355 3.91915,-0.44821 0.87507,-0.67016 1.29921,-1.23169 1.54173,-2.04112 0.44807,-1.49553 0.15108,-1.79382 -1.37863,-1.38468 -1.35966,0.36365 -2.34065,0.0917 -5.63849,-1.56323 -2.00216,-1.00471 -2.27336,-1.07192 -3.90591,-0.96796 -1.13253,0.0721 -1.9045,0.26185 -2.17797,0.53532 -0.38844,0.38844 -0.50353,0.3764 -1.38576,-0.14504 -0.82699,-0.48877 -1.45832,-0.58169 -4.4942,-0.6614 -2.26733,-0.0595 -3.63292,0.008 -3.81377,0.18898 -0.17748,0.17748 -0.26749,1.72712 -0.24326,4.18818 0.0346,3.51878 0.0936,3.98104 0.59409,4.65797 0.54632,0.73894 0.54751,0.76783 0.0711,1.7254 -0.35108,0.70573 -0.48219,1.55669 -0.47615,3.09055 0.008,1.92619 0.0995,2.29398 1.0218,4.08709 1.01019,1.96406 1.21919,3.11248 0.82839,4.55197 -0.15428,0.56829 -0.0875,0.73423 0.35135,0.87353 0.72517,0.23016 1.88561,-0.40381 2.94249,-1.60753 0.83393,-0.94979 0.86064,-1.0505 0.73701,-2.7784 l -0.12828,-1.7929 0.79696,-0.27782 c 1.21381,-0.42313 1.45459,-0.34661 1.64558,0.52299 0.37818,1.72184 1.54989,3.26648 3.70262,4.8811 0.5235,0.39264 0.52208,0.4026 -0.13229,0.93019 -0.88081,0.71014 -2.85872,1.25614 -5.32841,1.47089 -3.9817,0.34624 -5.97764,2.05314 -6.11656,5.2308 -0.0595,1.36182 0.006,1.54654 0.86164,2.44557 1.08966,1.14431 2.26317,1.70314 3.57651,1.70314 1.0094,0 2.5089,-0.6366 2.5089,-1.06513 0,-0.14178 0.15042,-0.25779 0.33426,-0.25779 0.64331,0 0.85606,2.54028 0.77773,9.28647 l -0.0786,6.77293 -1.03019,-0.27497 c -1.39333,-0.3719 -3.04587,0.0258 -3.04587,0.733 0,0.33855 0.25636,0.57869 0.76219,0.71397 0.96633,0.25843 1.98744,1.19324 2.42004,2.21548 0.18475,0.43656 0.41484,1.86531 0.51133,3.175 0.25174,3.41725 0.62281,5.06023 1.33366,5.90503 0.43383,0.51557 0.5497,0.85619 0.38162,1.12184 -0.41443,0.65501 -0.27526,1.76666 0.44708,3.57103 l 0.69654,1.73992 -0.75328,1.87119 c -0.95841,2.38074 -1.49874,3.05453 -2.94748,3.67553 -0.95076,0.40755 -1.15326,0.61257 -1.08435,1.09788 0.0774,0.54479 0.22525,0.59675 1.69865,0.59675 1.49323,0 1.69608,0.0742 2.71274,0.99218 1.43211,1.29313 2.4212,1.33008 3.54097,0.13229 z m -2.51815,-1.5875 c -0.16551,-0.46158 0.28553,-1.25677 0.71286,-1.25677 0.51483,0 1.03374,0.72079 0.85474,1.18726 -0.18497,0.48202 -1.40037,0.53591 -1.5676,0.0695 z m 2.54864,-1.70467 c -0.73455,-0.48014 -1.32743,-1.86299 -0.95738,-2.23303 0.18394,-0.18395 0.46668,0.0109 0.88534,0.61003 0.33831,0.48415 0.68037,0.93981 0.76014,1.01257 0.0798,0.0728 0.38316,0.41601 0.6742,0.76277 l 0.52917,0.63047 -0.66146,-0.20559 c -0.3638,-0.11307 -0.9173,-0.37282 -1.23001,-0.57722 z m -4.45814,-0.0151 c 0.10411,-0.25466 0.30104,-0.84998 0.43762,-1.32292 0.28852,-0.99908 1.14357,-1.18302 1.42196,-0.3059 0.12691,0.39986 -0.0291,0.76794 -0.56084,1.32292 -0.83036,0.86671 -1.60235,1.04854 -1.29874,0.3059 z m 1.7222,-7.79599 c -0.28164,-1.22566 -0.28362,-1.58908 -0.0105,-1.91823 0.46393,-0.559 0.91689,-0.50934 1.72599,0.18922 l 0.68952,0.59531 -0.84421,1.68666 c -0.93132,1.86073 -1.01285,1.83184 -1.56085,-0.55296 z m -0.85201,-4.90803 c -0.73435,-0.73435 -1.43146,-5.9145 -0.73829,-5.48609 0.14552,0.0899 0.26641,0.48392 0.26864,0.87551 0.005,0.96196 0.35375,1.44608 0.95369,1.32567 0.43094,-0.0865 0.48545,-0.30375 0.40759,-1.62465 -0.103,-1.74757 0.36879,-4.04653 0.86988,-4.23881 0.71516,-0.27444 1.22181,3.01835 0.68262,4.43651 -0.29857,0.78531 -0.10762,1.47473 0.40846,1.47473 0.43871,0 0.95977,-0.91309 0.87411,-1.53175 -0.18657,-1.34741 0.37142,-3.20804 1.24958,-4.16676 0.50071,-0.54665 0.96912,-0.93516 1.04092,-0.86337 0.0718,0.0718 -0.15787,0.78268 -0.51037,1.57974 -0.44793,1.01283 -0.73923,2.39934 -0.96743,4.60473 -0.33792,3.26565 -0.6098,3.94635 -1.6673,4.17447 -0.98462,0.2124 -2.36982,-0.0577 -2.8721,-0.55994 z m -2.23995,-8.22239 c -0.5005,-0.7824 -0.86066,-1.47186 -0.80036,-1.53216 0.48231,-0.4823 1.97089,1.46922 2.04498,2.68096 0.0643,1.05211 -0.0365,1.45099 -0.20178,0.79833 -0.0731,-0.28853 -0.54235,-1.16474 -1.04284,-1.94713 z m 1.61455,-5.46578 c -0.0197,-2.18282 -0.12697,-6.67094 -0.23849,-9.97362 l -0.20276,-6.00487 -1.05512,-1.19397 c -1.33799,-1.51408 -2.49357,-1.94308 -3.63877,-1.35088 -1.85018,0.95677 -1.5689,3.83896 0.37465,3.83896 0.52875,0 0.5425,-0.76115 0.0174,-0.96265 -0.57058,-0.21896 -0.50076,-1.34997 0.095,-1.53906 1.76255,-0.55941 3.02626,2.18253 1.47449,3.19929 -0.8278,0.5424 -2.79946,0.52055 -3.65574,-0.0405 -1.33017,-0.87156 -1.67216,-2.74391 -0.82664,-4.52571 0.5481,-1.15502 1.70318,-1.68761 3.66009,-1.68761 1.98083,0 3.49696,1.15288 4.5231,3.43944 l 0.73348,1.63441 0.10677,7.58339 c 0.0587,4.17086 0.16768,8.21066 0.24214,8.97733 0.10563,1.08775 0.0121,1.63567 -0.42603,2.49437 -0.51355,1.00664 -0.58638,1.05696 -0.85462,0.59043 -0.17389,-0.30245 -0.30776,-2.12512 -0.32895,-4.47874 z m 2.78428,1.78509 c -0.11289,-0.71413 -0.21976,-4.36588 -0.23749,-8.11499 -0.0319,-6.74299 -0.33455,-9.88662 -1.08726,-11.29307 -0.16994,-0.31754 -0.78214,-1.09066 -1.36045,-1.71805 -0.5783,-0.62739 -0.98412,-1.24967 -0.9018,-1.38286 0.0823,-0.13318 0.53909,-0.31931 1.01506,-0.41362 0.47597,-0.0943 1.37848,-0.53888 2.00559,-0.98794 0.93303,-0.66813 1.29357,-0.78339 1.98438,-0.63436 0.46429,0.10016 1.92779,0.26146 3.2522,0.35845 1.41998,0.10399 2.58854,0.3266 2.84796,0.54253 0.30317,0.25235 0.80068,0.31674 1.60037,0.20713 1.06507,-0.14598 1.17354,-0.10686 1.31984,0.47608 0.18814,0.7496 1.08126,1.11202 1.62609,0.65986 0.71668,-0.59479 0.38738,-2.10613 -0.4589,-2.10613 -0.43056,0 -0.49473,-0.12732 -0.36669,-0.7276 0.0908,-0.42548 -0.01,-1.04149 -0.24254,-1.4835 -0.27565,-0.52385 -0.35268,-1.17363 -0.25094,-2.11667 0.10027,-0.92948 -0.013,-1.92109 -0.35735,-3.12863 l -0.50415,-1.76786 1.15008,-1.6526 c 0.63254,-0.90894 1.15008,-1.9291 1.15008,-2.26704 0,-0.81113 0.15017,-0.77938 1.32238,0.27965 1.06045,0.95804 3.51651,2.02474 5.02762,2.18355 0.50933,0.0535 4.4852,0.15325 8.83527,0.22161 7.50173,0.11789 9.68557,0.33313 9.68557,0.95461 0,0.31678 0.76849,0.28376 -8.59896,0.36951 -4.93647,0.0452 -8.62997,0.1919 -9.27679,0.36848 -1.8876,0.51535 -3.86486,2.10548 -4.65175,3.741 -0.38466,0.79949 -0.77302,1.9001 -0.86302,2.4458 -0.41017,2.48681 0.80928,4.82591 3.14383,6.03041 l 1.30362,0.67259 0.0487,1.70866 c 0.0268,0.93976 0.009,1.77586 -0.0387,1.85799 -0.0481,0.0821 -0.86514,0.0331 -1.8156,-0.10893 -1.62984,-0.24357 -1.74431,-0.30728 -2.01262,-1.12027 -0.36381,-1.10237 -2.25951,-2.85499 -3.54802,-3.28023 -1.10133,-0.36347 -2.45765,-0.23068 -4.51466,0.44203 -1.52576,0.49897 -4.27282,3.1023 -4.51162,4.27556 -0.0785,0.38546 -0.2638,1.15642 -0.41188,1.71324 -0.1575,0.59225 -0.25482,4.21574 -0.23451,8.73125 0.0191,4.24537 0.0266,7.83366 0.0167,7.97398 -0.051,0.72133 -0.91235,-0.78819 -1.08963,-1.90962 z M 147.54327,146.239 c -0.4356,-0.52488 0.12644,-1.24944 0.88217,-1.13725 0.70224,0.10424 0.83097,0.57693 0.30137,1.10653 -0.53039,0.5304 -0.76381,0.53645 -1.18354,0.0307 z m -11.51916,-1.70087 c 0.51259,-0.99124 1.43247,-1.47378 2.36389,-1.24001 0.80237,0.20138 1.33518,1.05828 1.01442,1.63145 -0.19478,0.34805 -0.29262,0.32943 -0.71365,-0.1358 -0.72092,-0.79661 -1.66553,-0.69233 -2.20241,0.24312 -0.59387,1.03477 -1.0184,0.57672 -0.46225,-0.49876 z m 9.93166,-8.78257 c 0,-0.90268 0.82495,-1.81969 1.637,-1.81969 0.56373,0 0.56031,0.0192 -0.13229,0.74208 -0.47958,0.50058 -0.71096,1.02776 -0.71096,1.6199 0,0.75028 -0.0577,0.82996 -0.39687,0.54844 -0.21828,-0.18116 -0.39688,-0.67199 -0.39688,-1.09073 z m -9.93092,0.17969 c -0.50719,-0.50719 -0.59811,-0.77794 -0.42204,-1.25677 0.32875,-0.89409 1.41318,-1.20469 2.26267,-0.64808 0.817,0.53532 0.87479,1.30014 0.15279,2.02214 -0.69766,0.69766 -1.20853,0.6676 -1.99342,-0.11729 z m -5.70463,-0.85657 c -1.98577,-0.62703 -4.77456,-3.39969 -5.2271,-5.19687 -0.30842,-1.22484 -0.17262,-3.22395 0.25625,-3.77221 0.12289,-0.1571 0.57583,-0.23392 1.00651,-0.17071 1.16761,0.17137 2.13739,-0.89319 2.13739,-2.34628 v -1.1069 l 1.75442,0.17975 c 2.33606,0.23933 3.26796,0.66702 4.97861,2.28488 1.68465,1.59327 2.52739,3.63611 2.52739,6.12649 0,1.47771 -0.0261,1.53612 -0.6876,1.53612 -0.72252,0 -2.22282,1.34812 -2.22282,1.99736 0,0.19464 -0.26789,0.54636 -0.59531,0.78161 -0.67275,0.48336 -1.65232,0.40524 -3.92774,-0.31324 z m 3.06784,-2.35117 c 0.55236,-0.64889 1.06801,-0.9648 1.69555,-1.03872 0.49599,-0.0584 0.99823,-0.26135 1.11609,-0.45093 0.31526,-0.5071 -0.0358,-2.35533 -0.60087,-3.16367 -0.27004,-0.38626 -0.49097,-0.83843 -0.49097,-1.00482 0,-0.43075 -1.28395,-1.56701 -2.43686,-2.15654 -1.50488,-0.76951 -2.23884,-0.65102 -3.44623,0.55637 -0.58208,0.58209 -1.14094,1.05834 -1.2419,1.05834 -0.10096,0 -0.44414,0.24276 -0.76262,0.53947 -0.66736,0.62173 -0.80358,2.52529 -0.24833,3.46998 0.72521,1.23386 1.97677,2.34426 3.07597,2.72903 1.78709,0.62557 2.43872,0.52051 3.34017,-0.53851 z m -4.1449,-0.6674 c -1.34248,-0.68308 -2.12572,-1.85319 -2.02279,-3.02191 0.0452,-0.51382 0.19695,-0.90197 0.3371,-0.86255 0.14015,0.0394 0.22125,0.39163 0.18023,0.78267 -0.1129,1.0764 0.38625,1.74993 1.55678,2.10063 0.58144,0.1742 1.18939,0.47605 1.351,0.67078 0.16161,0.19473 0.56718,0.35406 0.90126,0.35406 0.84271,0 1.47049,0.27297 1.29199,0.56179 -0.21847,0.35349 -2.47106,-0.0133 -3.59557,-0.58547 z m 4.80636,-2.23053 c 0,-0.52827 -1.50931,-3.43694 -1.99077,-3.83652 -0.34533,-0.2866 -0.59903,-0.29657 -1.25414,-0.0493 -0.92046,0.34743 -1.1275,0.26949 -0.89482,-0.33686 0.28144,-0.73341 0.96661,-0.75183 2.37054,-0.0637 1.56824,0.76861 2.35287,1.70204 2.7451,3.26568 0.32596,1.29948 0.0105,2.17674 -0.60039,1.66972 -0.20653,-0.17141 -0.37552,-0.46345 -0.37552,-0.64898 z m -2.96156,0.17496 c -0.19015,-0.27047 -0.63134,-0.47883 -0.98041,-0.46303 -0.34907,0.0158 -0.68642,-0.12009 -0.74965,-0.30199 -0.0721,-0.20744 0.13328,-0.33073 0.55096,-0.33073 0.52979,0 0.68305,-0.14876 0.74965,-0.72761 0.11124,-0.9668 0.84996,-0.96673 0.9612,10e-5 0.046,0.40024 0.31394,0.85092 0.59531,1.0015 0.85842,0.45941 0.58329,1.22323 -0.4656,1.29262 -0.17365,0.0115 -0.4713,-0.2004 -0.66146,-0.47086 z m -12.00341,3.50406 c 0.1308,-0.52114 -0.1382,-1.32091 -1.09014,-3.24115 -1.08036,-2.1793 -1.26454,-2.77969 -1.26903,-4.13679 -0.007,-2.16341 0.66061,-3.08782 2.79185,-3.86491 0.87227,-0.31805 1.54263,-0.70965 1.48969,-0.87022 -0.053,-0.16057 -0.81733,-0.32704 -1.69863,-0.36994 -2.21519,-0.10781 -2.35502,-0.32485 -2.53492,-3.93479 l -0.14723,-2.95444 2.16957,-0.18072 c 2.30286,-0.19183 4.1017,0.11261 4.66323,0.7892 0.22578,0.27206 0.26436,0.9672 0.13203,2.37935 -0.15987,1.70602 -0.12754,1.99501 0.22318,1.99501 0.43252,0 0.55613,-0.28817 0.83832,-1.95431 0.4852,-2.86484 3.11483,-3.85509 6.15591,-2.31815 0.61846,0.31256 1.63049,0.82631 2.24896,1.14165 0.6852,0.34937 1.69295,0.59224 2.57968,0.62171 1.68094,0.0558 1.91555,0.4908 0.66021,1.22396 -0.65993,0.38542 -0.99709,0.41891 -1.98438,0.19713 -0.65415,-0.14694 -1.44845,-0.51051 -1.76509,-0.80792 -0.71206,-0.6688 -1.14407,-0.43996 -1.14407,0.60603 0,1.68678 -1.24677,3.14199 -2.69195,3.14199 -1.28718,0 -2.07055,-0.73409 -2.07055,-1.94028 0,-1.12527 0.19875,-1.31084 0.88738,-0.82851 1.14441,0.80158 2.295,0.23906 2.28357,-1.11642 -0.006,-0.75622 -0.3539,-1.12086 -1.23647,-1.29738 -0.69852,-0.1397 -0.97095,-0.0153 -1.87403,0.85592 -1.13966,1.09942 -1.49894,2.19603 -1.04552,3.19118 0.20743,0.45525 0.19883,0.70464 -0.0322,0.93571 -0.78877,0.78877 -4.27436,-2.40553 -4.27436,-3.91715 0,-1.02118 -0.69951,-1.70391 -1.74579,-1.70391 -0.90643,0 -1.69379,0.74626 -1.69379,1.60537 0,0.59901 0.81061,1.26874 1.7672,1.46005 0.53482,0.10697 1.25179,0.66725 2.12877,1.66354 1.97128,2.23949 2.06009,3.16804 0.28519,2.98187 -0.9991,-0.1048 -3.03285,0.84927 -3.24671,1.52311 -0.40529,1.27695 0.72466,2.38484 1.84367,1.80769 0.7473,-0.38543 0.95272,-0.76417 0.78989,-1.45629 -0.34829,-1.48041 1.66542,-0.75525 2.44553,0.88066 0.43622,0.91475 0.43605,0.91543 -0.43195,1.81098 -1.04109,1.07414 -2.1829,1.36712 -3.2511,0.83423 -1.36522,-0.68106 -2.06775,0.0845 -0.98049,1.06852 1.27213,1.15126 1.61023,2.70108 0.89216,4.08966 -0.52347,1.01228 -1.31587,1.07816 -1.06755,0.0888 z m 46.88263,-3.67051 c 0.29267,-0.76271 3.29186,-1.98056 5.38859,-2.1881 1.74252,-0.17247 1.98438,-0.26091 1.98438,-0.72558 0,-0.47037 -0.13229,-0.51447 -1.19063,-0.39687 -2.70342,0.30038 -5.42656,0.14689 -6.1817,-0.34843 -0.6036,-0.39593 -0.67558,-0.54977 -0.40805,-0.87211 0.26294,-0.31683 0.98459,-0.37646 3.78802,-0.31303 3.31292,0.075 3.46319,0.0554 3.46319,-0.45081 0,-0.47628 -0.22477,-0.54367 -2.24896,-0.67431 -2.2292,-0.14386 -3.51814,-0.5806 -4.22416,-1.4313 -0.53607,-0.64594 -0.15488,-0.76179 0.82614,-0.25108 1.01557,0.52871 3.64341,1.14312 4.94745,1.15677 0.63121,0.007 1.04242,0.20566 1.42216,0.68842 0.46026,0.58513 0.67111,0.65599 1.52337,0.512 0.73974,-0.12498 1.10194,-0.0543 1.4364,0.28011 0.61811,0.61811 0.45371,2.00566 -0.28074,2.36952 -0.3119,0.15452 -0.72862,0.40665 -0.92604,0.56029 -0.54352,0.42298 -2.52007,0.84542 -4.6341,0.99043 -1.31469,0.0902 -2.28571,0.33377 -3.175,0.79648 -1.50691,0.78407 -1.71255,0.82458 -1.51032,0.2976 z m 21.32273,-2.16768 c -0.8576,-0.68659 -0.56937,-1.17628 0.5618,-0.9545 0.79214,0.15531 1.75754,1.40595 1.75933,2.27914 0.001,0.51532 -0.0824,0.46771 -2.32113,-1.32464 z m -8.5258,-1.14288 c -0.38137,-0.71259 0.0701,-1.52862 0.97087,-1.75469 0.74527,-0.18705 3.56543,0.67922 3.7199,1.14264 0.10344,0.31029 -2.31562,1.06547 -3.55698,1.11042 -0.60041,0.0217 -0.93389,-0.12485 -1.13379,-0.49837 z m 11.10838,-0.13726 c -0.49704,-0.59889 0.39079,-1.54512 1.09575,-1.16784 0.56858,0.3043 0.63811,0.79244 0.17837,1.25218 -0.42883,0.42883 -0.87261,0.39946 -1.27412,-0.0843 z m -2.77401,-1.69739 c 0,-0.38509 2.09837,-1.81062 2.72129,-1.84872 0.42192,-0.0258 0.0106,0.85773 -0.8274,1.77717 -0.61104,0.67045 -1.89389,0.71892 -1.89389,0.0716 z m -41.01041,-0.23411 c -1.28868,-0.39033 -3.74514,-2.04438 -4.43635,-2.98719 -0.71287,-0.97236 -0.7574,-4.03677 -0.0738,-5.07698 0.90175,-1.37212 3.54875,-1.95106 5.14542,-1.12539 1.59034,0.8224 2.11122,2.88149 1.06528,4.21118 -0.45451,0.57781 -0.76286,0.69714 -1.80151,0.69714 -1.73664,0 -2.31903,-0.46445 -1.99577,-1.59159 0.35117,-1.22445 1.06882,-1.61531 1.65553,-0.90167 0.50133,0.6098 1.10262,0.562 1.10262,-0.0876 0,-0.78452 -0.82704,-1.38784 -1.90249,-1.38784 -0.97057,0 -1.05573,0.0677 -1.55697,1.237 l -0.53024,1.237 0.73808,1.47498 c 0.43376,0.86682 1.01081,1.60005 1.39954,1.77832 2.10991,0.96759 2.70164,1.01951 11.70174,1.02673 6.67271,0.005 9.00524,0.0888 9.24719,0.33073 0.41561,0.41561 0.11147,0.67728 -1.23747,1.06462 -1.58162,0.45416 -1.50272,0.45065 -9.77251,0.43537 -5.22468,-0.01 -8.02928,-0.11697 -8.74832,-0.33476 z m -20.97134,-0.2508 c -1.19162,-0.779 -0.98227,-2.44294 0.30736,-2.44294 1.3738,0 2.66343,1.95545 1.83559,2.78329 -0.44084,0.44085 -1.11072,0.33445 -2.14295,-0.34035 z"
       id="path1017" />
  </g>
</svg>
