<svg xmlns="http://www.w3.org/2000/svg" viewBox="0 0 200 200" fill="none">
  <!-- Original Invite VERSE ornament  Super-Classic corner (warm cream/burgundy) -->
  <g opacity="0.92">
    <path d="M12 28c18-14 42-20 68-16-14 12-28 28-36 48-6-14-14-24-32-32z" fill="#7a2f3d"/>
    <path d="M28 72c22-18 48-28 78-26-18 16-34 36-42 60-8-16-16-26-36-34z" fill="#a67c52" opacity="0.9"/>
    <path d="M18 48c8-2 14 4 12 12-6 2-12-4-12-12z" fill="#c4a574"/>
    <path d="M52 36c10-4 16 6 12 14-8 2-16-6-12-14z" fill="#7a2f3d" opacity="0.75"/>
    <path d="M44 88c16-10 34-14 54-10-12 12-22 28-26 46-8-12-14-22-28-36z" fill="#8b4a3a" opacity="0.85"/>
    <path d="M8 110c20-8 38-6 54 6-14 8-28 10-46 6-6-2-10-8-8-12z" fill="#a67c52" opacity="0.7"/>
    <circle cx="36" cy="52" r="4.5" fill="#f7f1e8"/>
    <circle cx="62" cy="68" r="3.2" fill="#f7f1e8" opacity="0.85"/>
    <path d="M70 24c8 10 6 22-2 30-4-10-8-18-10-28 4-2 8-2 12-2z" fill="#7a2f3d" opacity="0.55"/>
  </g>
</svg>
