<svg xmlns="http://www.w3.org/2000/svg" viewBox="0 0 240 240" fill="none">
  <!-- Original Invite VERSE  Super-Classic circular photo frame -->
  <circle cx="120" cy="120" r="108" stroke="#a67c52" stroke-width="2.5" opacity="0.55"/>
  <circle cx="120" cy="120" r="100" stroke="#7a2f3d" stroke-width="1.5" opacity="0.45"/>
  <g fill="#a67c52">
    <path d="M120 8c6 10 4 20-2 28-6-8-8-18-2-28z" opacity="0.9"/>
    <path d="M120 204c6 10 4 20-2 28-6-8-8-18-2-28z" transform="rotate(180 120 218)" opacity="0.9"/>
    <path d="M8 120c10-6 20-4 28 2-8 6-18 8-28-2z" opacity="0.9"/>
    <path d="M204 120c10-6 20-4 28 2-8 6-18 8-28-2z" opacity="0.9"/>
  </g>
  <g fill="#7a2f3d" opacity="0.7">
    <circle cx="120" cy="22" r="3"/>
    <circle cx="120" cy="218" r="3"/>
    <circle cx="22" cy="120" r="3"/>
    <circle cx="218" cy="120" r="3"/>
  </g>
  <path d="M48 48c12-8 24-6 34 2-10 8-22 10-34 4-2-2-2-4 0-6z" fill="#c4a574" opacity="0.65"/>
  <path d="M192 48c-12-8-24-6-34 2 10 8 22 10 34 4 2-2 2-4 0-6z" fill="#c4a574" opacity="0.65"/>
  <path d="M48 192c12 8 24 6 34-2-10-8-22-10-34-4-2 2-2 4 0 6z" fill="#c4a574" opacity="0.65"/>
  <path d="M192 192c-12 8-24 6-34-2 10-8 22-10 34-4 2 2 2 4 0 6z" fill="#c4a574" opacity="0.65"/>
</svg>
