<?xml version="1.0" encoding="UTF-8" standalone="no"?>
<!-- Created with Inkscape (http://www.inkscape.org/) -->
<svg
   xmlns:dc="http://purl.org/dc/elements/1.1/"
   xmlns:cc="http://creativecommons.org/ns#"
   xmlns:rdf="http://www.w3.org/1999/02/22-rdf-syntax-ns#"
   xmlns:svg="http://www.w3.org/2000/svg"
   xmlns="http://www.w3.org/2000/svg"
   xmlns:xlink="http://www.w3.org/1999/xlink"
   xmlns:sodipodi="http://sodipodi.sourceforge.net/DTD/sodipodi-0.dtd"
   xmlns:inkscape="http://www.inkscape.org/namespaces/inkscape"
   id="svg2"
   sodipodi:version="0.32"
   inkscape:version="0.46+devel, revision 19938"
   width="100%"
   height="100%"
   sodipodi:docname="floral-a.svg"
   inkscape:output_extension="org.inkscape.output.svg.inkscape">
  <metadata
     id="metadata7">
    <rdf:RDF>
      <cc:Work
         rdf:about="">
        <dc:format>image/svg+xml</dc:format>
        <dc:type
           rdf:resource="http://purl.org/dc/dcmitype/StillImage" />
        <dc:title></dc:title>
      </cc:Work>
    </rdf:RDF>
  </metadata>
  <defs
     id="defs5">
    <inkscape:path-effect
       effect="freehand_shape"
       id="path-effect2715"
       pattern="M 0,5 C 0,2.24 22.4,0 50,0 77.6,0 100,2.24 100,5 100,7.76 77.6,10 50,10 22.4,10 0,7.76 0,5 z" />
    <inkscape:path-effect
       effect="spiro"
       id="path-effect2713" />
    <inkscape:perspective
       sodipodi:type="inkscape:persp3d"
       inkscape:vp_x="0 : 0.5 : 1"
       inkscape:vp_y="0 : 1000 : 0"
       inkscape:vp_z="1 : 0.5 : 1"
       inkscape:persp3d-origin="0.5 : 0.33333333 : 1"
       id="perspective9" />
  </defs>
  <sodipodi:namedview
     inkscape:window-height="744"
     inkscape:window-width="1280"
     inkscape:pageshadow="2"
     inkscape:pageopacity="0.0"
     guidetolerance="10.0"
     gridtolerance="10.0"
     objecttolerance="10.0"
     borderopacity="1.0"
     bordercolor="#666666"
     pagecolor="#ffffff"
     id="base"
     showgrid="false"
     inkscape:zoom="0.28982417"
     inkscape:cx="303.03988"
     inkscape:cy="595.18845"
     inkscape:window-x="-4"
     inkscape:window-y="-4"
     inkscape:current-layer="svg2" />
  <path
     sodipodi:type="arc"
     style="fill:#1a1a1a;fill-opacity:1;stroke:none;display:none"
     id="path2703"
     sodipodi:cx="527.90625"
     sodipodi:cy="641.76843"
     sodipodi:rx="182.86949"
     sodipodi:ry="182.86949"
     d="m 710.77574,641.76843 a 182.86949,182.86949 0 1 1 -365.73898,0 182.86949,182.86949 0 1 1 365.73898,0 z"
     transform="translate(-134.56434,-144.91545)" />
  <g
     id="g2828">
    <path
       id="path2711"
       d="m 148.36582,348.48715 c 0.0727,0.10438 -0.19077,0.43351 -0.74377,1.00483 -0.55299,0.57132 -1.396,1.38688 -2.43226,2.51361 -1.03625,1.12674 -2.26719,2.56764 -3.53103,4.40117 -1.26384,1.83352 -2.56266,4.06329 -3.64318,6.72937 -0.92894,2.28982 -1.69446,4.90763 -2.11886,7.80757 -0.4244,2.89995 -0.50779,6.08445 -0.0415,9.40579 0.36393,2.60128 1.06876,5.29248 2.17144,7.95756 1.10268,2.66509 2.60354,5.30472 4.53979,7.74543 3.3188,4.18861 7.98198,7.84588 13.58639,9.99936 1e-5,10e-6 1e-5,10e-6 2e-5,10e-6 4.4069,1.72914 9.39405,2.44416 14.60106,2.0828 5.20701,-0.36137 10.63577,-1.80015 15.70044,-4.27058 4.45333,-2.1735 8.65935,-5.15719 12.54425,-8.80194 3.8849,-3.64475 7.44867,-7.95103 10.61614,-12.67325 3.72482,-5.56255 6.87647,-11.74653 9.73045,-18.38594 2.85399,-6.6394 5.41,-13.73447 8.07082,-21.03874 2.39793,-6.68004 4.92436,-13.61037 7.97886,-20.54137 3.0545,-6.931 6.63716,-13.86268 11.23579,-20.48402 7.50126,-10.60801 17.28343,-19.67246 28.62826,-27.05061 11.34484,-7.37816 24.25105,-13.06979 37.68522,-17.02669 12.37173,-3.67499 25.1901,-6.10723 38.25086,-7.90016 13.06077,-1.79294 26.36348,-2.94797 39.67149,-4.22308 12.55225,-1.22723 25.51356,-2.62542 38.87435,-2.38689 0.35447,0.006 0.70902,0.0138 1.06365,0.0225 13.75429,0.31025 27.68171,2.69206 40.29019,8.53002 12.42316,5.85795 22.79545,14.71361 31.26758,24.54075 8.74407,10.1175 15.67938,21.14558 21.98776,31.98767 6.86774,11.74948 13.05977,23.26806 20.49869,33.27153 3.91607,5.23309 8.16739,10.1208 12.77807,14.33599 4.61068,4.21519 9.58073,7.75779 14.92467,10.36016 9.44348,4.6599 20.0193,6.46136 29.88191,5.3156 5.25257,-0.60574 10.34318,-2.04156 15.02158,-4.14617 4.6784,-2.10461 8.94465,-4.87801 12.6033,-8.17467 5.72212,-5.09317 9.94027,-11.46762 12.80306,-18.21512 2.86279,-6.74751 4.37048,-13.86913 4.70549,-20.71603 0.40291,-8.1838 -0.81225,-16.03681 -2.92441,-23.25028 -2.11216,-7.21348 -5.12292,-13.78942 -8.50247,-19.59288 -1.83146,-3.11447 -3.71963,-5.95308 -5.87748,-8.30058 -2.34442,-2.54046 -4.96635,-4.56963 -7.75078,-5.75777 -3.07164,-1.30805 -6.34923,-1.69614 -9.16121,-1.03597 -1.59672,0.37107 -3.08887,1.06917 -4.32852,1.97113 -1.23965,0.90197 -2.22764,2.0081 -2.88833,3.22474 -0.95108,1.70403 -1.31746,3.62531 -1.20578,5.36782 0.12825,2.04836 0.90257,3.89818 1.93083,5.30325 0.66157,0.90623 1.43761,1.64636 2.23135,2.23211 0.79374,0.58576 1.60607,1.01785 2.37954,1.32889 0.91445,0.36859 1.77872,0.57199 2.53642,0.6897 0.75769,0.1177 1.41065,0.15002 1.9401,0.16058 1.0589,0.0211 1.63042,-0.0183 1.66974,0.12581 0.0393,0.14414 -0.45562,0.47539 -1.56489,0.75468 -0.55464,0.13965 -1.2643,0.25842 -2.12422,0.27899 -0.85993,0.0206 -1.87198,-0.0571 -2.99252,-0.34163 -0.94735,-0.24125 -1.96647,-0.63117 -2.99292,-1.22618 -1.02644,-0.59501 -2.06115,-1.39575 -2.9935,-2.4469 -1.44528,-1.63256 -2.62939,-3.8644 -3.00646,-6.53983 -0.31824,-2.27658 -0.0311,-4.83026 1.11475,-7.25163 0.83096,-1.7179 2.06008,-3.30406 3.63455,-4.61933 1.57447,-1.31528 3.49513,-2.35998 5.64031,-2.95622 3.71551,-1.02723 7.94286,-0.81269 11.90133,0.71596 3.55354,1.36927 6.86126,3.65113 9.68849,6.53197 2.60128,2.64136 4.84671,5.71365 6.88458,8.94633 3.81844,6.00396 7.26007,12.90295 9.75291,20.61128 2.49284,7.70833 4.03831,16.22816 3.86481,25.30492 -0.14872,7.63852 -1.63803,15.6273 -4.73024,23.30686 -3.09222,7.67957 -7.78786,15.05096 -14.31853,21.19287 -4.21542,3.92339 -9.11257,7.24158 -14.50302,9.78218 -5.39046,2.5406 -11.27428,4.30357 -17.40781,5.10079 -11.50065,1.48654 -23.73376,-0.39057 -34.79111,-5.69113 -6.20265,-3.00761 -11.91734,-6.95704 -17.13146,-11.57549 -5.21413,-4.61845 -9.92767,-9.90583 -14.13925,-15.52991 -8.03493,-10.66698 -14.53519,-22.45688 -21.34395,-33.97149 -6.29509,-10.59673 -12.95077,-21.11153 -21.10896,-30.40822 -7.90925,-8.98873 -17.22756,-16.98473 -28.06158,-21.97288 -10.92203,-5.13561 -23.51508,-7.18031 -36.34044,-7.55562 -0.3315,-0.009 -0.66324,-0.0168 -0.99521,-0.0235 -12.51299,-0.25171 -25.105,1.11906 -37.73472,2.30544 -13.38394,1.28323 -26.55807,2.37991 -39.31237,4.05512 -12.7543,1.6752 -25.0885,3.93037 -36.83571,7.37877 -12.67634,3.75469 -24.80985,8.95922 -35.39163,15.63241 -10.58177,6.6732 -19.61059,14.81527 -26.3928,24.36088 -4.26884,5.89044 -7.65965,12.28896 -10.63846,18.85312 -2.9788,6.56415 -5.54563,13.29387 -8.07714,19.90643 -2.74168,7.26404 -5.49027,14.47907 -8.61947,21.35332 -3.1292,6.87425 -6.63865,13.40786 -10.77525,19.39036 -3.52474,5.10576 -7.56996,9.75441 -12.01821,13.70112 -4.44825,3.94672 -9.29946,7.19195 -14.4402,9.58766 -5.90939,2.75602 -12.20299,4.21346 -18.25341,4.41593 -6.05043,0.20246 -11.8595,-0.84886 -17.03181,-3.01232 0,0 -1e-5,-1e-5 -2e-5,-1e-5 -6.53503,-2.7795 -11.76146,-7.23356 -15.40418,-12.23929 -2.12212,-2.91933 -3.70505,-6.01533 -4.81785,-9.10483 -1.1128,-3.0895 -1.7558,-6.17316 -2.01285,-9.12787 -0.32659,-3.77299 -0.0273,-7.31127 0.64264,-10.48294 0.66995,-3.17167 1.71072,-5.97916 2.91256,-8.39174 1.40002,-2.80818 3.00724,-5.0745 4.54904,-6.87859 1.54179,-1.80408 3.02044,-3.14941 4.27236,-4.14282 1.25192,-0.99341 2.27885,-1.63767 2.9959,-2.01998 0.71706,-0.38232 1.12516,-0.50441 1.1979,-0.40003 z"
       inkscape:transform-center-y="-165.61765"
       style="fill:#000000;fill-rule:evenodd;stroke:none" />
    <use
       height="1"
       width="1"
       inkscape:transform-center-y="-165.61765"
       id="use2817"
       xlink:href="#path2711"
       inkscape:tiled-clone-of="#path2711"
       y="0"
       x="0" />
    <use
       height="1"
       width="1"
       inkscape:transform-center-y="-44.331908"
       inkscape:transform-center-x="-150.10129"
       id="use2819"
       transform="matrix(0.30901699,0.95105652,-0.95105652,0.30901699,741.8271,-32.165387)"
       xlink:href="#path2711"
       inkscape:tiled-clone-of="#path2711"
       y="0"
       x="0" />
    <use
       height="1"
       width="1"
       inkscape:transform-center-y="126.40105"
       inkscape:transform-center-x="-82.881654"
       id="use2821"
       transform="matrix(-0.80901699,0.58778525,-0.58778525,-0.80901699,1001.6554,663.41446)"
       xlink:href="#path2711"
       inkscape:tiled-clone-of="#path2711"
       y="0"
       x="0" />
    <use
       height="1"
       width="1"
       inkscape:transform-center-y="112.07348"
       inkscape:transform-center-x="89.975689"
       id="use2823"
       transform="matrix(-0.80901699,-0.58778525,0.58778525,-0.80901699,420.41099,1125.4718)"
       xlink:href="#path2711"
       inkscape:tiled-clone-of="#path2711"
       y="0"
       x="0" />
    <use
       height="1"
       width="1"
       inkscape:transform-center-y="-46.068632"
       inkscape:transform-center-x="146.27967"
       id="use2825"
       transform="matrix(0.30901699,-0.95105652,0.95105652,0.30901699,-198.64608,715.45915)"
       xlink:href="#path2711"
       inkscape:tiled-clone-of="#path2711"
       y="0"
       x="0" />
  </g>
</svg>
