<svg xmlns="http://www.w3.org/2000/svg" viewBox="0 0 360 160" fill="none">
  <!-- Original Invite VERSE — Blue-Flowers bottom spray -->
  <g opacity="0.95">
    <path d="M40 130c20-40 50-70 90-80-10 30-20 55-20 80-20-8-40-8-70 0z" fill="#005189"/>
    <path d="M100 140c18-35 42-58 78-68-12 28-18 48-16 68-18-4-36-4-62 0z" fill="#2276b1"/>
    <path d="M170 145c14-30 36-52 70-60-10 24-14 42-10 60-18-2-36-2-60 0z" fill="#359bb7"/>
    <path d="M230 140c16-32 40-54 74-62-12 26-16 44-12 62-18-4-36-4-62 0z" fill="#2276b1"/>
    <path d="M290 130c18-36 44-64 80-74-12 28-22 52-22 74-16-8-34-8-58 0z" fill="#005189"/>
    <circle cx="120" cy="78" r="7" fill="#94deff" opacity="0.85"/>
    <circle cx="180" cy="70" r="9" fill="#ffffff" opacity="0.7"/>
    <circle cx="240" cy="76" r="7" fill="#94deff" opacity="0.85"/>
    <path d="M150 100c8-16 22-16 30 0-8 14-22 14-30 0z" fill="#005189" opacity="0.55"/>
    <path d="M210 98c8-16 22-16 30 0-8 14-22 14-30 0z" fill="#005189" opacity="0.55"/>
  </g>
</svg>
