<svg xmlns="http://www.w3.org/2000/svg" viewBox="0 0 360 120" fill="none">
  <!-- Original Invite VERSE — Blue-Flowers top spray -->
  <g opacity="0.92">
    <path d="M30 20c22 28 48 48 82 58-14-22-22-42-18-58-18 4-38 4-64 0z" fill="#005189"/>
    <path d="M110 12c16 24 38 42 70 50-12-20-16-36-12-50-16 2-34 2-58 0z" fill="#2276b1"/>
    <path d="M180 8c14 22 34 38 64 46-10-18-12-32-8-46-16 2-34 2-56 0z" fill="#359bb7"/>
    <path d="M250 12c16 24 40 42 72 50-14-20-18-36-14-50-16 2-34 2-58 0z" fill="#2276b1"/>
    <circle cx="140" cy="42" r="6" fill="#94deff" opacity="0.8"/>
    <circle cx="210" cy="36" r="8" fill="#ffffff" opacity="0.65"/>
    <circle cx="280" cy="44" r="6" fill="#94deff" opacity="0.8"/>
  </g>
</svg>
